<svg xmlns="http://www.w3.org/2000/svg" xmlns:xlink="http://www.w3.org/1999/xlink" width="119.097" height="65.802" viewBox="0 0 119.097 65.802">
  <defs>
    <clipPath id="clip-path">
      <rect id="Rectangle_173" data-name="Rectangle 173" width="119.097" height="65.802" fill="#252427"/>
    </clipPath>
  </defs>
  <g id="Groupe_1345" data-name="Groupe 1345" transform="translate(6)">
    <g id="Groupe_581" data-name="Groupe 581" transform="translate(-6)" clip-path="url(#clip-path)">
      <path id="Tracé_171" data-name="Tracé 171" d="M120.7,21.878l-6.171-2.594c-3.786-1.543-7.292-2.875-7.292-6.451,0-3.366,2.8-5.4,7.152-5.4a14.809,14.809,0,0,1,9.958,3.927l4.207-5.19A20.288,20.288,0,0,0,114.393.351c-8.905,0-15.356,5.609-15.356,12.9,0,6.732,4.7,10.308,9.256,12.2l6.241,2.735c4.207,1.753,7.152,2.945,7.152,6.732,0,3.576-2.875,5.89-7.994,5.89A18.261,18.261,0,0,1,101.7,35.622L97,41.161a23.589,23.589,0,0,0,16.478,6.732c10.308,0,16.478-6.171,16.478-13.6,0-6.661-3.786-10.1-9.256-12.412" transform="translate(-51.742 -0.187)" fill="#252427"/>
      <path id="Tracé_172" data-name="Tracé 172" d="M200.92,40.81c-7.643,0-12.622-6.311-12.622-16.759,0-10.308,5.4-16.618,12.9-16.618a11.677,11.677,0,0,1,8.485,3.786l4.488-5.049A17.964,17.964,0,0,0,201.13.35c-11.78,0-21.176,8.905-21.176,23.911,0,15.216,9.186,23.63,20.826,23.63a18.31,18.31,0,0,0,14.3-6.661L210.6,36.252a12.42,12.42,0,0,1-9.677,4.558" transform="translate(-95.988 -0.187)" fill="#252427"/>
      <path id="Tracé_173" data-name="Tracé 173" d="M0,81.856H9.114L4.668,67.491Z" transform="translate(0 -36)" fill="#252427"/>
      <path id="Tracé_174" data-name="Tracé 174" d="M57.1,45.857,42.2,0H33.084l14.9,45.857Z" transform="translate(-17.647 0)" fill="#252427"/>
      <path id="Tracé_175" data-name="Tracé 175" d="M6.125,129.834H2.59l-.651,1.8H.822l2.931-8.059H4.974l2.92,8.059H6.776Zm-.3-.861-1.466-4.093-1.465,4.093Z" transform="translate(-0.438 -65.916)" fill="#252427"/>
      <path id="Tracé_176" data-name="Tracé 176" d="M23.135,123.477v.861h-2.21v7.245H19.867v-7.245H17.646v-.861Z" transform="translate(-9.413 -65.863)" fill="#252427"/>
      <path id="Tracé_177" data-name="Tracé 177" d="M33.259,124.324v2.71h2.954v.872H33.259V130.7h3.3v.872H32.2v-8.117h4.361v.873Z" transform="translate(-17.176 -65.849)" fill="#252427"/>
      <path id="Tracé_178" data-name="Tracé 178" d="M46.045,130.722h2.837v.861h-3.9v-8.106h1.059Z" transform="translate(-23.996 -65.863)" fill="#252427"/>
      <rect id="Rectangle_172" data-name="Rectangle 172" width="1.059" height="8.106" transform="translate(26.014 57.614)" fill="#252427"/>
      <path id="Tracé_179" data-name="Tracé 179" d="M62.943,124.324v2.71H65.9v.872H62.943V130.7h3.3v.872H61.884v-8.117h4.361v.873Z" transform="translate(-33.009 -65.849)" fill="#252427"/>
      <path id="Tracé_180" data-name="Tracé 180" d="M78.938,131.583l-1.931-3.315H75.729v3.315H74.67v-8.106h2.617a3.472,3.472,0,0,1,1.552.314,2.185,2.185,0,0,1,.948.849,2.35,2.35,0,0,1-1.616,3.547l2.035,3.4Zm-3.21-4.163h1.558a1.767,1.767,0,0,0,1.291-.425,1.52,1.52,0,0,0,.43-1.134,1.45,1.45,0,0,0-.424-1.116,1.848,1.848,0,0,0-1.3-.4H75.729Z" transform="translate(-39.829 -65.863)" fill="#252427"/>
      <path id="Tracé_181" data-name="Tracé 181" d="M97.347,131.26a2.39,2.39,0,0,1-.994-.79,2.025,2.025,0,0,1-.372-1.169h1.128a1.482,1.482,0,0,0,.471.959,1.686,1.686,0,0,0,1.2.39,1.759,1.759,0,0,0,1.192-.377,1.227,1.227,0,0,0,.436-.971,1.1,1.1,0,0,0-.256-.756,1.639,1.639,0,0,0-.64-.442,10.163,10.163,0,0,0-1.035-.326,9.18,9.18,0,0,1-1.285-.418,2.067,2.067,0,0,1-.825-.657,1.928,1.928,0,0,1-.343-1.2,2.085,2.085,0,0,1,.337-1.174,2.2,2.2,0,0,1,.948-.791,3.338,3.338,0,0,1,1.4-.279,2.932,2.932,0,0,1,1.866.57,2.1,2.1,0,0,1,.82,1.512h-1.163a1.258,1.258,0,0,0-.489-.82,1.737,1.737,0,0,0-1.139-.355,1.648,1.648,0,0,0-1.082.343,1.17,1.17,0,0,0-.419.959,1.039,1.039,0,0,0,.25.721,1.608,1.608,0,0,0,.616.424q.367.146,1.029.332a9.622,9.622,0,0,1,1.291.436,2.149,2.149,0,0,1,.838.663,1.927,1.927,0,0,1,.349,1.215,2.137,2.137,0,0,1-.314,1.117,2.309,2.309,0,0,1-.93.849,3.066,3.066,0,0,1-1.454.326,3.469,3.469,0,0,1-1.436-.285" transform="translate(-51.196 -65.743)" fill="#252427"/>
      <path id="Tracé_182" data-name="Tracé 182" d="M115.837,127.53a2.934,2.934,0,0,1-2.111.669h-1.558v3.384h-1.059v-8.106h2.617a2.966,2.966,0,0,1,2.088.663,2.393,2.393,0,0,1,.023,3.39m-.808-.587a1.409,1.409,0,0,0,.419-1.094q0-1.5-1.721-1.5h-1.558v2.977h1.558a1.883,1.883,0,0,0,1.3-.384" transform="translate(-59.266 -65.863)" fill="#252427"/>
      <path id="Tracé_183" data-name="Tracé 183" d="M126.7,131.029a3.872,3.872,0,0,1-1.471-1.477,4.482,4.482,0,0,1,0-4.268,3.876,3.876,0,0,1,1.471-1.477,4.291,4.291,0,0,1,4.128,0,3.843,3.843,0,0,1,1.465,1.471,4.545,4.545,0,0,1,0,4.28,3.843,3.843,0,0,1-1.465,1.471,4.291,4.291,0,0,1-4.128,0m3.588-.785a2.784,2.784,0,0,0,1.07-1.128,3.907,3.907,0,0,0,0-3.4,2.8,2.8,0,0,0-1.064-1.122,3.176,3.176,0,0,0-3.07,0,2.8,2.8,0,0,0-1.064,1.122,3.907,3.907,0,0,0,0,3.4,2.781,2.781,0,0,0,1.07,1.128,3.156,3.156,0,0,0,3.059,0" transform="translate(-66.511 -65.757)" fill="#252427"/>
      <path id="Tracé_184" data-name="Tracé 184" d="M149.4,131.583l-1.931-3.315h-1.279v3.315H145.13v-8.106h2.617a3.472,3.472,0,0,1,1.552.314,2.184,2.184,0,0,1,.948.849,2.35,2.35,0,0,1-1.616,3.547l2.035,3.4Zm-3.21-4.163h1.558a1.767,1.767,0,0,0,1.291-.425,1.52,1.52,0,0,0,.43-1.134,1.45,1.45,0,0,0-.424-1.116,1.848,1.848,0,0,0-1.3-.4h-1.558Z" transform="translate(-77.413 -65.863)" fill="#252427"/>
      <path id="Tracé_185" data-name="Tracé 185" d="M164.7,123.477v.861h-2.21v7.245h-1.058v-7.245h-2.221v-.861Z" transform="translate(-84.925 -65.863)" fill="#252427"/>
      <path id="Tracé_186" data-name="Tracé 186" d="M174.636,131.26a2.39,2.39,0,0,1-.994-.79,2.025,2.025,0,0,1-.372-1.169H174.4a1.482,1.482,0,0,0,.471.959,1.686,1.686,0,0,0,1.2.39,1.759,1.759,0,0,0,1.192-.377,1.227,1.227,0,0,0,.436-.971,1.1,1.1,0,0,0-.256-.756,1.639,1.639,0,0,0-.64-.442,10.163,10.163,0,0,0-1.035-.326,9.178,9.178,0,0,1-1.285-.418,2.067,2.067,0,0,1-.825-.657,1.928,1.928,0,0,1-.343-1.2,2.085,2.085,0,0,1,.337-1.174,2.2,2.2,0,0,1,.948-.791,3.338,3.338,0,0,1,1.4-.279,2.933,2.933,0,0,1,1.866.57,2.1,2.1,0,0,1,.82,1.512h-1.163a1.258,1.258,0,0,0-.488-.82,1.737,1.737,0,0,0-1.139-.355,1.648,1.648,0,0,0-1.082.343,1.17,1.17,0,0,0-.419.959,1.039,1.039,0,0,0,.25.721,1.607,1.607,0,0,0,.616.424q.367.146,1.029.332a9.623,9.623,0,0,1,1.291.436,2.149,2.149,0,0,1,.838.663,1.927,1.927,0,0,1,.349,1.215,2.137,2.137,0,0,1-.314,1.117,2.309,2.309,0,0,1-.93.849,3.066,3.066,0,0,1-1.454.326,3.469,3.469,0,0,1-1.436-.285" transform="translate(-92.422 -65.743)" fill="#252427"/>
      <path id="Tracé_187" data-name="Tracé 187" d="M194.741,125.271a3.888,3.888,0,0,1,1.46-1.483,4.03,4.03,0,0,1,2.053-.535,4.165,4.165,0,0,1,2.314.64,3.667,3.667,0,0,1,1.442,1.814h-1.268a2.544,2.544,0,0,0-.971-1.128,2.807,2.807,0,0,0-1.518-.4,2.951,2.951,0,0,0-1.523.4,2.759,2.759,0,0,0-1.058,1.122,3.945,3.945,0,0,0,0,3.4,2.759,2.759,0,0,0,1.058,1.122,2.952,2.952,0,0,0,1.523.4,2.842,2.842,0,0,0,1.518-.39,2.509,2.509,0,0,0,.971-1.122h1.268a3.637,3.637,0,0,1-1.442,1.8,4.189,4.189,0,0,1-2.314.634A4.058,4.058,0,0,1,196.2,131a3.858,3.858,0,0,1-1.46-1.471,4.514,4.514,0,0,1,0-4.262" transform="translate(-103.59 -65.743)" fill="#252427"/>
      <path id="Tracé_188" data-name="Tracé 188" d="M215.352,130.722h2.837v.861h-3.9v-8.106h1.059Z" transform="translate(-114.305 -65.863)" fill="#252427"/>
      <path id="Tracé_189" data-name="Tracé 189" d="M226.069,123.477v5.128a2.17,2.17,0,0,0,.529,1.605,2.313,2.313,0,0,0,2.931,0,2.169,2.169,0,0,0,.529-1.605v-5.128h1.058v5.117a3.311,3.311,0,0,1-.407,1.7,2.56,2.56,0,0,1-1.1,1.029,3.741,3.741,0,0,1-3.105,0,2.522,2.522,0,0,1-1.093-1.029,3.349,3.349,0,0,1-.4-1.7v-5.117Z" transform="translate(-120.021 -65.863)" fill="#252427"/>
      <path id="Tracé_190" data-name="Tracé 190" d="M246.752,127.768a2.111,2.111,0,0,1,.581.721,2.1,2.1,0,0,1-.1,2.03,2.136,2.136,0,0,1-.913.779,3.26,3.26,0,0,1-1.413.285h-3.024v-8.106h2.908a3.285,3.285,0,0,1,1.407.273,1.99,1.99,0,0,1,.872.738,1.933,1.933,0,0,1,.291,1.047,1.809,1.809,0,0,1-.39,1.192,2.179,2.179,0,0,1-1.029.68,1.716,1.716,0,0,1,.808.361m-3.808-.791h1.779a1.716,1.716,0,0,0,1.151-.349,1.347,1.347,0,0,0,0-1.93,1.754,1.754,0,0,0-1.174-.349h-1.756Zm3.1,3.361a1.28,1.28,0,0,0,.442-1.035,1.315,1.315,0,0,0-.465-1.064,1.874,1.874,0,0,0-1.244-.39h-1.838v2.861h1.872a1.857,1.857,0,0,0,1.233-.372" transform="translate(-129.022 -65.863)" fill="#252427"/>
    </g>
  </g>
</svg>
